<mxfile host="app.diagrams.net" agent="Mozilla/5.0 (Windows NT 10.0; Win64; x64) AppleWebKit/537.36 (KHTML, like Gecko) Chrome/130.0.0.0 Safari/537.36 Edg/130.0.0.0" version="24.8.6">
  <diagram id="C5RBs43oDa-KdzZeNtuy" name="Page-1">
    <mxGraphModel dx="654" dy="602" grid="1" gridSize="10" guides="1" tooltips="1" connect="1" arrows="1" fold="1" page="1" pageScale="1" pageWidth="827" pageHeight="1169" math="0" shadow="0">
      <root>
        <mxCell id="WIyWlLk6GJQsqaUBKTNV-0" />
        <mxCell id="WIyWlLk6GJQsqaUBKTNV-1" parent="WIyWlLk6GJQsqaUBKTNV-0" />
        <mxCell id="vlXAxfPc7UylaKXJ-wJT-2" value="" style="edgeStyle=orthogonalEdgeStyle;rounded=0;orthogonalLoop=1;jettySize=auto;html=1;" edge="1" parent="WIyWlLk6GJQsqaUBKTNV-1" source="vlXAxfPc7UylaKXJ-wJT-0" target="vlXAxfPc7UylaKXJ-wJT-1">
          <mxGeometry relative="1" as="geometry" />
        </mxCell>
        <mxCell id="vlXAxfPc7UylaKXJ-wJT-0" value="start" style="ellipse;whiteSpace=wrap;html=1;" vertex="1" parent="WIyWlLk6GJQsqaUBKTNV-1">
          <mxGeometry x="280" y="270" width="120" height="80" as="geometry" />
        </mxCell>
        <mxCell id="vlXAxfPc7UylaKXJ-wJT-4" value="" style="edgeStyle=orthogonalEdgeStyle;rounded=0;orthogonalLoop=1;jettySize=auto;html=1;" edge="1" parent="WIyWlLk6GJQsqaUBKTNV-1" source="vlXAxfPc7UylaKXJ-wJT-1" target="vlXAxfPc7UylaKXJ-wJT-3">
          <mxGeometry relative="1" as="geometry" />
        </mxCell>
        <mxCell id="vlXAxfPc7UylaKXJ-wJT-1" value="nhập số N" style="shape=parallelogram;perimeter=parallelogramPerimeter;whiteSpace=wrap;html=1;fixedSize=1;" vertex="1" parent="WIyWlLk6GJQsqaUBKTNV-1">
          <mxGeometry x="280" y="440" width="120" height="60" as="geometry" />
        </mxCell>
        <mxCell id="vlXAxfPc7UylaKXJ-wJT-6" value="đúng" style="edgeStyle=orthogonalEdgeStyle;rounded=0;orthogonalLoop=1;jettySize=auto;html=1;" edge="1" parent="WIyWlLk6GJQsqaUBKTNV-1" source="vlXAxfPc7UylaKXJ-wJT-3" target="vlXAxfPc7UylaKXJ-wJT-5">
          <mxGeometry x="-0.0667" y="10" relative="1" as="geometry">
            <mxPoint as="offset" />
          </mxGeometry>
        </mxCell>
        <mxCell id="vlXAxfPc7UylaKXJ-wJT-8" value="sai" style="edgeStyle=orthogonalEdgeStyle;rounded=0;orthogonalLoop=1;jettySize=auto;html=1;" edge="1" parent="WIyWlLk6GJQsqaUBKTNV-1" source="vlXAxfPc7UylaKXJ-wJT-3" target="vlXAxfPc7UylaKXJ-wJT-7">
          <mxGeometry x="-0.1111" y="10" relative="1" as="geometry">
            <mxPoint as="offset" />
          </mxGeometry>
        </mxCell>
        <mxCell id="vlXAxfPc7UylaKXJ-wJT-3" value="N/ dư 0" style="rhombus;whiteSpace=wrap;html=1;" vertex="1" parent="WIyWlLk6GJQsqaUBKTNV-1">
          <mxGeometry x="285" y="570" width="110" height="80" as="geometry" />
        </mxCell>
        <mxCell id="vlXAxfPc7UylaKXJ-wJT-11" style="edgeStyle=orthogonalEdgeStyle;rounded=0;orthogonalLoop=1;jettySize=auto;html=1;exitX=0.5;exitY=1;exitDx=0;exitDy=0;entryX=1;entryY=0.5;entryDx=0;entryDy=0;" edge="1" parent="WIyWlLk6GJQsqaUBKTNV-1" source="vlXAxfPc7UylaKXJ-wJT-5" target="vlXAxfPc7UylaKXJ-wJT-9">
          <mxGeometry relative="1" as="geometry" />
        </mxCell>
        <mxCell id="vlXAxfPc7UylaKXJ-wJT-5" value="số chẵn" style="whiteSpace=wrap;html=1;" vertex="1" parent="WIyWlLk6GJQsqaUBKTNV-1">
          <mxGeometry x="470" y="580" width="120" height="60" as="geometry" />
        </mxCell>
        <mxCell id="vlXAxfPc7UylaKXJ-wJT-10" value="" style="edgeStyle=orthogonalEdgeStyle;rounded=0;orthogonalLoop=1;jettySize=auto;html=1;" edge="1" parent="WIyWlLk6GJQsqaUBKTNV-1" source="vlXAxfPc7UylaKXJ-wJT-7" target="vlXAxfPc7UylaKXJ-wJT-9">
          <mxGeometry relative="1" as="geometry" />
        </mxCell>
        <mxCell id="vlXAxfPc7UylaKXJ-wJT-7" value="số lẻ" style="whiteSpace=wrap;html=1;" vertex="1" parent="WIyWlLk6GJQsqaUBKTNV-1">
          <mxGeometry x="280" y="740" width="120" height="60" as="geometry" />
        </mxCell>
        <mxCell id="vlXAxfPc7UylaKXJ-wJT-9" value="end" style="ellipse;whiteSpace=wrap;html=1;" vertex="1" parent="WIyWlLk6GJQsqaUBKTNV-1">
          <mxGeometry x="280" y="870" width="120" height="80" as="geometry" />
        </mxCell>
      </root>
    </mxGraphModel>
  </diagram>
</mxfile>
